<?xml version="1.0" encoding="UTF-8" standalone="no"?>
<!-- Created with Inkscape (http://www.inkscape.org/) -->
<svg
   xmlns:dc="http://purl.org/dc/elements/1.1/"
   xmlns:cc="http://creativecommons.org/ns#"
   xmlns:rdf="http://www.w3.org/1999/02/22-rdf-syntax-ns#"
   xmlns:svg="http://www.w3.org/2000/svg"
   xmlns="http://www.w3.org/2000/svg"
   xmlns:sodipodi="http://sodipodi.sourceforge.net/DTD/sodipodi-0.dtd"
   xmlns:inkscape="http://www.inkscape.org/namespaces/inkscape"
   width="168.3575"
   height="59.465"
   id="svg2532"
   sodipodi:version="0.32"
   inkscape:version="0.46"
   version="1.0"
   sodipodi:docname="Cognizant-Logo.svg"
   inkscape:output_extension="org.inkscape.output.svg.inkscape">
  <defs
     id="defs2534">
    <clipPath
       clipPathUnits="userSpaceOnUse"
       id="clipPath87">
      <path
         d="M 398.524,92.805 L 398.524,45.233 L 533.21,45.233 L 533.21,92.805"
         id="path89" />
    </clipPath>
    <inkscape:perspective
       sodipodi:type="inkscape:persp3d"
       inkscape:vp_x="0 : 526.18109 : 1"
       inkscape:vp_y="0 : 1000 : 0"
       inkscape:vp_z="744.09448 : 526.18109 : 1"
       inkscape:persp3d-origin="372.04724 : 350.78739 : 1"
       id="perspective2540" />
  </defs>
  <sodipodi:namedview
     id="base"
     pagecolor="#ffffff"
     bordercolor="#666666"
     borderopacity="1.0"
     inkscape:pageopacity="0.0"
     inkscape:pageshadow="2"
     inkscape:zoom="3.3618936"
     inkscape:cx="84.17875"
     inkscape:cy="29.7325"
     inkscape:document-units="px"
     inkscape:current-layer="layer1"
     showgrid="false"
     inkscape:window-width="640"
     inkscape:window-height="667"
     inkscape:window-x="22"
     inkscape:window-y="29" />
  <metadata
     id="metadata2537">
    <rdf:RDF>
      <cc:Work
         rdf:about="">
        <dc:format>image/svg+xml</dc:format>
        <dc:type
           rdf:resource="http://purl.org/dc/dcmitype/StillImage" />
      </cc:Work>
    </rdf:RDF>
  </metadata>
  <g
     inkscape:label="Ebene 1"
     inkscape:groupmode="layer"
     id="layer1"
     transform="translate(-175.82125,-408.34397)">
    <path
       d="M 257.97625,433.81272 C 258.0025,432.80397 257.9275,431.79522 257.46,431.23022 C 256.9925,430.66397 255.935,430.46647 255.4675,430.46647 C 253.59875,430.46647 252.86,431.59897 252.7875,431.84522 C 252.71375,432.04147 252.27,432.48522 252.27,435.53272 L 252.27,440.28147 C 252.27,444.63647 253.69625,445.15147 255.44375,445.15147 C 256.1325,445.15147 258.22375,444.90647 258.24875,441.43772 L 260.585,441.43772 C 260.68375,447.04522 256.7225,447.04522 255.56625,447.04522 C 253.3525,447.04522 249.9575,446.89897 249.9575,440.01022 L 249.9575,434.99397 C 249.9575,429.97522 252.17125,428.54772 255.665,428.54772 C 259.1825,428.54772 260.53625,430.36897 260.3125,433.81272 L 257.97625,433.81272"
       style="fill:#231f20;fill-opacity:1;fill-rule:nonzero;stroke:none"
       id="path55" />
    <path
       d="M 262.6925,440.65022 C 262.6925,437.01022 263.11,434.01022 267.41375,434.01022 C 271.71875,434.01022 272.1375,437.01022 272.1375,440.65022 C 272.1375,446.13647 270.04625,446.92397 267.41375,446.92397 C 264.78125,446.92397 262.6925,446.13647 262.6925,440.65022 z M 270.0225,439.79022 C 270.0225,436.39522 268.96375,435.65772 267.41375,435.65772 C 265.865,435.65772 264.80625,436.39522 264.80625,439.79022 C 264.80625,443.82397 265.3225,445.27522 267.41375,445.27522 C 269.50375,445.27522 270.0225,443.82397 270.0225,439.79022"
       style="fill:#231f20;fill-opacity:1;fill-rule:nonzero;stroke:none"
       id="path57" />
    <path
       d="M 281.39,434.25522 L 283.4075,434.25522 L 283.4075,447.93272 C 283.4075,450.71022 281.56375,451.37522 278.8325,451.37522 C 276.7675,451.37522 274.8975,450.34272 275.07125,448.05397 L 277.33125,448.05397 C 277.35875,449.21147 278.11875,449.84897 279.22625,449.84897 C 280.62875,449.84897 281.39,448.98772 281.39,447.71022 L 281.39,445.12772 L 281.31625,445.12772 C 280.8,446.11022 279.66875,446.67897 278.5875,446.67897 C 275.2175,446.67897 274.5525,443.77522 274.5525,440.08397 C 274.5525,434.37772 277.43125,434.01022 278.43875,434.01022 C 279.74375,434.01022 280.77625,434.57522 281.3425,435.77897 L 281.39,435.77897 L 281.39,434.25522 z M 279.02875,435.68147 C 276.7425,435.68147 276.67,438.43647 276.67,440.08397 C 276.67,444.06897 277.57875,445.00522 279.0775,445.00522 C 281.515,445.00522 281.4425,442.12647 281.4425,440.40397 C 281.4425,438.55897 281.56375,435.68147 279.02875,435.68147"
       style="fill:#231f20;fill-opacity:1;fill-rule:nonzero;stroke:none"
       id="path59" />
    <path
       d="M 293.52625,446.67897 L 293.52625,438.06772 C 293.52625,436.74022 293.0575,435.65772 291.33625,435.65772 C 289.1225,435.65772 288.80125,437.62522 288.80125,439.32272 L 288.80125,446.67897 L 286.785,446.67897 L 286.785,436.83772 C 286.785,435.97772 286.73625,435.11647 286.66375,434.25522 L 288.80125,434.25522 L 288.80125,435.85147 L 288.90125,435.85147 C 289.6875,434.45147 290.62125,434.01022 292.22125,434.01022 C 294.8775,434.01022 295.54125,435.60647 295.54125,438.06772 L 295.54125,446.67897 L 293.52625,446.67897"
       style="fill:#231f20;fill-opacity:1;fill-rule:nonzero;stroke:none"
       id="path61" />
    <path
       d="M 301.4,446.67897 L 299.38238,446.67897 L 299.38238,434.25584 L 301.4,434.25584 L 301.4,446.67897 z M 299.25875,428.91647 L 301.52375,428.91647 L 301.52375,431.08147 L 299.25875,431.08147 L 299.25875,428.91647"
       style="fill:#231f20;fill-opacity:1;fill-rule:nonzero;stroke:none"
       id="path63" />
    <path
       d="M 312.31375,436.09897 L 306.82625,445.02897 L 312.48625,445.02897 L 312.48625,446.67897 L 304.64,446.67897 L 304.64,444.78397 L 310.05125,435.95147 L 310.05125,435.90272 L 304.91,435.90272 L 304.91,434.25522 L 312.31375,434.25522 L 312.31375,436.09897"
       style="fill:#231f20;fill-opacity:1;fill-rule:nonzero;stroke:none"
       id="path65" />
    <path
       d="M 321.27875,444.88272 L 321.23125,444.88272 C 320.615,446.30772 319.65625,446.92397 318.105,446.92397 C 315.47375,446.92397 314.7125,445.22522 314.7125,442.84022 C 314.7125,439.07647 318.4,438.90397 321.23125,438.97772 C 321.27875,437.32897 321.3025,435.53272 319.13875,435.53272 C 317.78625,435.53272 317.0725,436.44397 317.19375,437.74772 L 315.0075,437.74772 C 315.105,434.96772 316.57875,434.01022 319.21375,434.01022 C 322.41,434.01022 323.24625,435.65772 323.24625,437.74772 L 323.24625,443.72522 C 323.24625,444.71022 323.345,445.71772 323.4925,446.67897 L 321.27875,446.67897 L 321.27875,444.88272 z M 316.7275,442.98772 C 316.7275,444.19397 317.31875,445.27522 318.6725,445.27522 C 319.9025,445.27522 321.42875,444.51272 321.23125,440.50272 C 319.31125,440.52897 316.7275,440.35397 316.7275,442.98772"
       style="fill:#231f20;fill-opacity:1;fill-rule:nonzero;stroke:none"
       id="path67" />
    <path
       d="M 333.3,446.67897 L 333.3,438.06772 C 333.3,436.74022 332.83125,435.65772 331.11125,435.65772 C 328.8975,435.65772 328.5775,437.62522 328.5775,439.32272 L 328.5775,446.67897 L 326.56,446.67897 L 326.56,436.83772 C 326.56,435.97772 326.51125,435.11647 326.435,434.25522 L 328.5775,434.25522 L 328.5775,435.85147 L 328.67625,435.85147 C 329.4625,434.45147 330.3975,434.01022 331.995,434.01022 C 334.6525,434.01022 335.3175,435.60647 335.3175,438.06772 L 335.3175,446.67897 L 333.3,446.67897"
       style="fill:#231f20;fill-opacity:1;fill-rule:nonzero;stroke:none"
       id="path69" />
    <path
       d="M 339.4075,434.25522 L 339.4075,431.86897 L 341.42375,430.95897 L 341.42375,434.25522 L 344.13125,434.25522 L 344.13125,435.77897 L 341.42375,435.77897 L 341.42375,443.38022 C 341.42375,444.16772 341.42375,445.17647 343.2675,445.17647 C 343.41625,445.17647 343.73625,445.12772 344.17875,445.07897 L 344.17875,446.62897 C 343.51625,446.67897 342.85,446.82522 342.18875,446.82522 C 340.26875,446.82522 339.4075,446.03647 339.4075,444.61147 L 339.4075,435.77897 L 337.36625,435.77897 L 337.36625,434.25522 L 339.4075,434.25522"
       style="fill:#231f20;fill-opacity:1;fill-rule:nonzero;stroke:none"
       id="path71" />
    <path
       d="M 205.5525,408.34397 C 189.1325,408.34397 175.82125,421.65647 175.82125,438.07647 C 175.82125,454.49647 189.1325,467.80897 205.5525,467.80897 C 221.9725,467.80897 235.285,454.49647 235.285,438.07647 C 235.285,421.65647 221.9725,408.34397 205.5525,408.34397"
       style="fill:#171110;fill-opacity:1;fill-rule:nonzero;stroke:none"
       id="path73" />
    <path
       d="M 207.87,455.10522 C 207.87,456.51522 207.26875,458.12647 205.55375,458.12647 C 203.84125,458.12647 203.33625,456.51522 203.33625,455.10522 L 203.33625,450.82772 C 198.90125,448.80022 194.53375,446.06397 190.54,442.65772 L 190.54,454.60022 C 190.54,463.26647 197.39125,467.59897 205.55375,467.59897 C 213.46375,467.59897 220.40375,463.42647 220.65875,455.08397 C 216.63,454.99897 212.2675,454.17647 207.87,452.65022 L 207.87,455.10522"
       style="fill:#0994dd;fill-opacity:1;fill-rule:nonzero;stroke:none"
       id="path75" />
    <path
       d="M 215.92625,444.64522 L 207.87,444.64522 L 207.87,444.65022 C 209.7875,445.66897 211.6475,446.23272 213.35,446.23147 C 215.22375,446.22897 215.9375,445.60397 215.92625,444.64522"
       style="fill:#0994dd;fill-opacity:1;fill-rule:nonzero;stroke:none"
       id="path77" />
    <path
       d="M 197.585,428.89022 C 192.3375,428.89897 196.1225,434.02647 199.69,437.95147 C 200.8825,439.26272 202.105,440.45397 203.33625,441.50022 L 203.33625,430.71022 C 203.0375,430.53397 202.7325,430.36897 202.42875,430.21522 C 200.74875,429.33022 199.13375,428.88897 197.585,428.89022"
       style="fill:#0994dd;fill-opacity:1;fill-rule:nonzero;stroke:none"
       id="path79" />
    <path
       d="M 203.33625,421.04647 C 203.33625,419.63647 203.84125,418.02397 205.55375,418.02397 C 207.26875,418.02397 207.87,419.63647 207.87,421.04647 L 207.87,424.29272 C 210.42875,425.49272 212.9775,426.96397 215.45,428.73897 L 220.66875,428.73897 L 220.66875,421.55147 C 220.66875,412.88522 213.615,408.55272 205.55375,408.55272 C 197.87875,408.55272 191.36375,412.38522 190.61375,420.04647 C 194.52625,420.15772 198.88625,420.91022 203.33625,422.45272 L 203.33625,421.04647"
       style="fill:#0994dd;fill-opacity:1;fill-rule:nonzero;stroke:none"
       id="path81" />
    <g
       transform="matrix(1.25,0,0,-1.25,-322.33375,524.35022)"
       id="g83">
      <g
         id="g85"
         clip-path="url(#clipPath87)">
        <path
           d="M 440.622,66.468 L 429.318,66.451 C 430.076,65.445 430.597,64.487 430.608,63.764 L 434.402,63.764 L 434.402,55.8 C 434.402,55.669 434.398,55.541 434.394,55.413 C 434.595,55.408 434.792,55.406 434.991,55.406 C 438.92,55.413 441.89,56.177 443.125,57.903 C 444.368,59.68 443.774,62.467 440.622,66.468"
           style="fill:#70c82c;fill-opacity:1;fill-rule:nonzero;stroke:none"
           id="path91" />
        <path
           d="M 410.358,83.443 C 410.066,83.452 409.778,83.456 409.491,83.456 C 400.148,83.441 398.168,78.181 406.377,69.152 C 407.615,67.789 408.931,66.522 410.299,65.354 L 410.299,82.239 C 410.299,82.653 410.32,83.054 410.358,83.443"
           style="fill:#70c82c;fill-opacity:1;fill-rule:nonzero;stroke:none"
           id="path93" />
      </g>
    </g>
    <path
       d="M 207.87,424.29272 C 206.36,423.58522 204.8425,422.97397 203.33625,422.45272 L 203.33625,430.71022 C 204.635,431.47397 205.88625,432.44772 207.01625,433.62897 L 221.21375,433.60772 C 219.365,431.77897 217.43,430.16272 215.45,428.73897 L 207.87,428.73897 L 207.87,424.29272"
       style="fill:#70c82c;fill-opacity:1;fill-rule:nonzero;stroke:none"
       id="path95" />
    <path
       d="M 207.87,452.65022 L 207.87,444.65022 C 206.37875,443.85772 204.8525,442.79022 203.33625,441.50022 L 203.33625,450.82772 C 204.845,451.51772 206.36,452.12522 207.87,452.65022"
       style="fill:#70c82c;fill-opacity:1;fill-rule:nonzero;stroke:none"
       id="path97" />
    <path
       d="M 203.33625,441.50022 C 202.105,440.45397 200.8825,439.26272 199.69,437.95147 C 196.1225,434.02647 192.3375,428.89897 197.585,428.89022 C 199.13375,428.88897 200.74875,429.33022 202.42875,430.21522 C 202.7325,430.36897 203.0375,430.53397 203.33625,430.71022 L 203.33625,422.45272 C 198.88625,420.91022 194.52625,420.15772 190.61375,420.04647 C 190.56625,420.53272 190.54,421.03397 190.54,421.55147 L 190.54,442.65772 C 194.53375,446.06397 198.90125,448.80022 203.33625,450.82772 L 203.33625,441.50022"
       style="fill:#81c5ee;fill-opacity:1;fill-rule:nonzero;stroke:none"
       id="path99" />
    <path
       d="M 207.87,428.73897 L 215.45,428.73897 C 212.9775,426.96397 210.42875,425.49272 207.87,424.29272 L 207.87,428.73897"
       style="fill:#81c5ee;fill-opacity:1;fill-rule:nonzero;stroke:none"
       id="path101" />
    <path
       d="M 220.66875,444.64522 L 215.92625,444.64522 C 215.9375,445.60397 215.22375,446.22897 213.35,446.23147 C 211.6475,446.23272 209.7875,445.66897 207.87,444.65022 L 207.87,452.65022 C 212.2675,454.17647 216.63,454.99897 220.65875,455.08397 C 220.66375,454.92397 220.66875,454.76397 220.66875,454.60022 L 220.66875,444.64522"
       style="fill:#81c5ee;fill-opacity:1;fill-rule:nonzero;stroke:none"
       id="path103" />
    <path
       d="M 236.32375,453.60147 L 236.32375,454.01147 L 235.34875,454.01147 L 235.34875,457.30647 L 234.87625,457.30647 L 234.87625,454.01147 L 233.90125,454.01147 L 233.90125,453.60147 L 236.32375,453.60147"
       style="fill:#231f20;fill-opacity:1;fill-rule:nonzero;stroke:none"
       id="path105" />
    <path
       d="M 237.47625,457.30647 L 237.03625,457.30647 L 237.03625,453.60147 L 237.8,453.60147 L 238.73375,456.71022 L 238.74625,456.71022 L 239.69,453.60147 L 240.47,453.60147 L 240.47,457.30647 L 239.9975,457.30647 L 239.9975,454.01147 L 239.9875,454.01147 L 238.94875,457.30647 L 238.5025,457.30647 L 237.4875,454.01147 L 237.47625,454.01147 L 237.47625,457.30647"
       style="fill:#231f20;fill-opacity:1;fill-rule:nonzero;stroke:none"
       id="path107" />
  </g>
</svg>
