<?xml version="1.0" encoding="UTF-8" standalone="no"?>
<svg
   xmlns:dc="http://purl.org/dc/elements/1.1/"
   xmlns:cc="http://creativecommons.org/ns#"
   xmlns:rdf="http://www.w3.org/1999/02/22-rdf-syntax-ns#"
   xmlns:svg="http://www.w3.org/2000/svg"
   xmlns="http://www.w3.org/2000/svg"
   xmlns:sodipodi="http://sodipodi.sourceforge.net/DTD/sodipodi-0.dtd"
   xmlns:inkscape="http://www.inkscape.org/namespaces/inkscape"
   width="300"
   height="300"
   viewBox="0 0 1000 1000"
   version="1.0"
   id="svg2"
   sodipodi:version="0.32"
   inkscape:version="0.46"
   sodipodi:docname="1000px-ONGC_Logo.svg"
   inkscape:output_extension="org.inkscape.output.svg.inkscape">
  <metadata
     id="metadata43">
    <rdf:RDF>
      <cc:Work
         rdf:about="">
        <dc:format>image/svg+xml</dc:format>
        <dc:type
           rdf:resource="http://purl.org/dc/dcmitype/StillImage" />
      </cc:Work>
    </rdf:RDF>
  </metadata>
  <defs
     id="defs41">
    <inkscape:perspective
       sodipodi:type="inkscape:persp3d"
       inkscape:vp_x="0 : 625 : 1"
       inkscape:vp_y="0 : 1000 : 0"
       inkscape:vp_z="1250 : 625 : 1"
       inkscape:persp3d-origin="625 : 416.66667 : 1"
       id="perspective45" />
  </defs>
  <sodipodi:namedview
     inkscape:window-height="669"
     inkscape:window-width="640"
     inkscape:pageshadow="2"
     inkscape:pageopacity="0.0"
     guidetolerance="10.0"
     gridtolerance="10.0"
     objecttolerance="10.0"
     borderopacity="1.0"
     bordercolor="#666666"
     pagecolor="#ffffff"
     id="base"
     showgrid="false"
     inkscape:zoom="0.3696"
     inkscape:cx="625"
     inkscape:cy="625"
     inkscape:window-x="138"
     inkscape:window-y="95"
     inkscape:current-layer="svg2" />
  <g
     id="#a41d23ff">
    <path
       d="M 0,0 L 1000,0 L 1000,1000 L 0,1000 L 0,0 M 648.86,35.78 C 640,39.55 631.47,45.84 627.89,55.09 C 625.04,61.94 626.72,69.84 630.55,75.96 C 597.92,75.94 565.29,75.95 532.66,75.96 C 532.65,83.37 532.65,90.79 532.66,98.21 C 567.86,98.21 603.05,98.21 638.25,98.2 C 638.32,103.95 638.28,109.7 638.28,115.45 C 614.97,115.48 591.66,115.46 568.35,115.46 C 568.35,122.89 568.36,130.32 568.35,137.75 C 574.8,138.26 581.94,136.1 587.77,139.83 C 594.67,144.77 597.01,154.03 595.87,162.1 C 595.01,168.65 591.52,175.57 585.07,178.08 C 580.12,180.14 574.41,177.74 571.26,173.71 C 566.39,167.7 565.37,159.47 566.65,152.05 C 556.74,152.13 546.84,152.06 536.93,152.09 C 535.51,160.23 536.1,168.82 539.37,176.47 C 544.99,190.32 558.2,200.7 572.95,203.03 C 584.35,204.94 596.51,202.42 605.99,195.75 C 616.16,188.8 623.22,177.37 624.53,165.09 C 625.75,155.58 623.18,145.87 618.33,137.69 C 624.95,137.7 631.58,137.59 638.21,137.78 C 638.23,159.28 638.2,180.77 638.23,202.27 C 647.64,202.26 657.05,202.27 666.46,202.27 C 666.47,167.59 666.46,132.91 666.46,98.23 C 672.73,98.25 679.01,98.08 685.28,98.32 C 685.15,132.97 685.2,167.62 685.29,202.27 C 694.64,202.26 703.99,202.27 713.34,202.27 C 713.35,167.59 713.34,132.91 713.35,98.23 C 718.3,98.19 723.26,98.19 728.22,98.28 C 728.35,90.82 728.27,83.36 728.28,75.9 C 725.48,75.95 722.69,75.96 719.9,75.97 C 723.43,70.13 725.24,62.82 722.94,56.19 C 719.56,46.33 710.64,39.57 701.32,35.69 C 684.7,29.02 665.44,28.93 648.86,35.78 M 853.63,35.37 C 844.46,39.07 835.57,45.38 831.77,54.85 C 828.82,61.73 830.42,69.73 834.31,75.9 C 804.37,75.87 774.43,75.94 744.49,75.95 C 744.47,83.37 744.47,90.79 744.49,98.21 C 756.97,98.2 769.45,98.2 781.94,98.26 C 784.04,98.34 786.34,97.89 788.25,99.07 C 797.81,103.91 802.05,116.15 799.24,126.2 C 797.63,131.78 793.07,136.97 787.07,137.65 C 782.12,138.36 777.61,135.6 773.79,132.81 C 773.79,126.47 773.67,120.13 773.71,113.79 C 764.32,113.79 754.93,113.79 745.54,113.79 C 745.56,131.84 745.49,149.88 745.58,167.93 C 745.76,177.88 747.97,188.58 754.95,196.08 C 759.25,200.82 765.74,202.88 772,202.81 C 790.73,202.82 809.46,202.91 828.19,202.76 C 828.07,195.33 828.16,187.9 828.14,180.47 C 813.13,180.53 798.13,180.56 783.13,180.31 C 780.07,180.05 775.72,179.87 774.74,176.27 C 773.3,170.17 773.83,163.83 773.71,157.62 C 787.79,166.57 807.01,161.51 818.13,150.07 C 827.89,150 837.65,149.98 847.41,150 C 847.47,167.44 847.32,184.88 847.49,202.31 C 856.82,202.25 866.16,202.23 875.49,202.32 C 875.72,167.62 875.48,132.91 875.61,98.2 C 881.32,98.22 887.04,98.19 892.76,98.22 C 892.78,132.9 892.75,167.58 892.77,202.27 C 902.18,202.27 911.58,202.27 921,202.27 C 921,167.58 921,132.9 921,98.22 C 924.86,98.03 928.86,98.53 932.66,97.94 C 932.78,90.63 932.7,83.31 932.66,76 C 929.65,75.93 926.65,75.93 923.65,75.96 C 927.52,69.78 929.14,61.78 926.23,54.89 C 922.43,45.45 913.6,39.13 904.45,35.41 C 888.31,29.1 869.79,29.09 853.63,35.37 M 173.08,32.91 C 173.08,40.17 173.06,47.43 173.09,54.69 C 181.77,54.83 191.22,53.45 199.08,58 C 205.39,61.77 206.94,69.47 209.08,75.93 C 191.71,75.98 174.34,75.93 156.97,75.96 C 156.96,83.37 156.96,90.79 156.97,98.2 C 160.35,98.21 163.73,98.21 167.12,98.21 C 167.18,118.16 167.14,138.12 167.14,158.08 C 163.42,158.09 159.69,158.09 155.97,158.08 C 154.79,149.56 151.25,141.39 145.58,134.89 C 149.07,129.16 151.96,122.8 152.29,116 C 153.04,106.22 149.65,96.26 143.29,88.82 C 134.76,78.63 121.22,73.14 108.03,73.68 C 95.03,73.92 82.21,80.34 74.44,90.81 C 68.82,98.21 66.3,107.68 66.96,116.91 C 75.93,116.94 84.9,116.88 93.87,116.95 C 93.45,112.81 94.18,108.45 96.68,105.05 C 101.68,97.56 113.06,96.27 119.77,102.19 C 126.86,107.73 127,119.46 120.26,125.33 C 115.98,129.49 109.53,127.94 104.15,128.24 C 104.19,135.68 104.06,143.12 104.22,150.55 C 109.34,150.71 114.65,149.76 119.61,151.37 C 126.08,154.91 128.58,163.46 126.3,170.25 C 124.14,176.66 117.88,181.44 111.12,181.78 C 102.91,182.41 94.79,176.23 93.33,168.11 C 92.6,164.84 93.48,161.55 94.11,158.34 C 84.56,158.47 75.01,158.36 65.45,158.4 C 63.88,174.4 72.51,190.61 86.31,198.7 C 99.55,206.78 116.9,207.73 130.88,200.96 C 141.49,195.98 150.03,186.7 153.92,175.63 C 158.32,175.43 162.74,175.57 167.15,175.55 C 167.16,184.45 167.13,193.36 167.16,202.27 C 176.55,202.26 185.95,202.27 195.34,202.27 C 195.36,167.59 195.33,132.9 195.36,98.22 C 201.08,98.2 206.81,98.19 212.54,98.23 C 212.54,132.91 212.53,167.59 212.54,202.27 C 221.93,202.27 231.32,202.27 240.71,202.27 C 240.72,167.6 240.71,132.92 240.71,98.24 C 244.23,98.19 247.76,98.2 251.29,98.21 C 251.29,90.77 251.29,83.34 251.28,75.9 C 247.25,75.9 243.23,75.91 239.2,75.89 C 236.11,69.01 233,62.14 230.05,55.2 C 228.18,50.06 226.32,44.62 222.27,40.75 C 216.74,35.15 208.64,33.01 200.98,32.91 C 191.68,32.88 182.38,32.91 173.08,32.91 M 262.72,75.9 C 262.7,83.34 262.71,90.77 262.71,98.21 C 266.41,98.21 270.11,98.2 273.8,98.22 C 273.83,121.79 273.8,145.36 273.82,168.93 C 273.8,178.15 276.14,187.96 282.69,194.79 C 287.6,200.08 295.01,202.3 302.07,202.25 C 325.22,202.29 348.37,202.26 371.52,202.27 C 371.52,194.81 371.53,187.36 371.51,179.9 C 353.7,179.89 335.88,179.92 318.06,179.89 C 313.6,179.69 308.25,179.7 305.09,176 C 302.11,172.03 302.32,166.78 302.1,162.07 C 302.05,140.78 302.14,119.49 302.05,98.2 C 311.05,98.25 320.05,98.12 329.05,98.29 C 333.35,98.28 336.75,101.59 338.8,105.08 C 343.57,112.89 345.16,123.37 340.5,131.6 C 336.72,138.06 327.19,140.17 321.29,135.29 C 319.08,143.97 316.31,152.5 313.8,161.1 C 327.63,166.19 343.9,163.64 355.65,154.78 C 364.46,148.24 371.12,138.16 371.78,127.01 C 372.61,116.61 368.34,106.54 362.41,98.22 C 400.63,98.2 438.85,98.21 477.07,98.21 C 477.08,104.8 477.07,111.4 477.07,118 C 458.03,118.11 438.99,117.78 419.95,118.18 C 410.02,118.24 399.67,120.37 391.74,126.68 C 379.93,135.59 375.7,152.13 379.41,166.1 C 382.62,178.29 392.34,188.29 404.1,192.58 C 415.4,196.87 428.52,196.05 439.18,190.35 C 449.13,185.12 456.83,175.58 459.3,164.56 C 461.34,156.45 459.77,147.95 456.71,140.31 C 463.47,140.45 470.23,140.4 476.99,140.37 C 477.18,161 477.02,181.63 477.07,202.26 C 486.48,202.15 495.88,202.24 505.29,202.21 C 505.3,167.54 505.27,132.88 505.3,98.22 C 509.39,98.2 513.48,98.21 517.58,98.21 C 517.59,90.79 517.59,83.37 517.58,75.95 C 432.62,75.94 347.67,75.99 262.72,75.9 M 379.53,274.39 C 332.26,300.63 294.11,342.87 272.7,392.5 C 253.86,436.43 247.82,485.93 256.83,532.96 C 259.63,547.16 262.95,561.39 268.24,574.87 C 269.73,579.59 275.16,578.16 278.93,578.2 C 306.63,577.99 334.33,577.91 362.02,577.67 C 388.58,577.71 415.14,577.04 441.69,577.52 C 443.57,576.29 444.28,573.87 444.77,571.79 C 447.48,550.8 450.51,529.86 453.35,508.89 C 459.11,467.85 464.45,426.73 470.66,385.76 C 471.5,455.45 471.84,525.15 472.34,594.85 C 407.95,594.85 343.57,594.85 279.18,594.84 C 282.87,600.22 286.74,605.46 290.32,610.91 C 331.87,611.15 373.43,611 414.99,611.06 C 412.78,612.65 410.41,614.03 408.34,615.8 L 408.4,616.73 L 408.09,615.89 C 382.52,634.5 361.74,659.85 349.26,688.95 C 355.04,691.27 360.81,693.59 366.57,695.95 C 383.18,658.02 415.14,626.97 453.79,611.97 C 459.87,610.19 466.32,611.33 472.57,611.1 C 472.46,619.51 472.72,627.93 472.62,636.34 C 435.67,645.85 404.73,675.73 394.18,712.43 C 400.14,714.14 406.17,715.63 412.16,717.29 C 420.86,688.68 444.09,664.58 472.8,655.85 C 472.75,664.12 473.06,672.4 472.84,680.67 C 455.41,690.37 444.64,710.42 445.41,730.27 C 481.83,730.23 518.25,730.03 554.67,730 C 555.37,709.95 544.24,689.88 526.58,680.27 C 526.32,672 526.46,663.73 526.36,655.47 C 555.07,664.25 578.71,687.75 587.74,716.38 C 593.69,714.7 599.67,713.08 605.63,711.4 C 594.71,674.71 563.3,645.32 526.27,636.03 C 526.37,627.63 526.12,619.22 526.24,610.82 C 534.6,610.78 543.52,609.52 551.11,613.94 C 587.02,629.59 616.94,658.72 633.05,694.48 C 638.81,692.09 644.61,689.77 650.33,687.28 C 642.56,670.06 632.04,654.09 619.23,640.19 C 608.84,628.71 596.71,618.96 583.96,610.24 C 625.33,610.17 666.7,610.22 708.07,610.21 C 711.86,604.81 715.6,599.38 719.36,593.96 C 654.95,594.05 590.55,594.23 526.15,594.66 C 525.92,525.39 525.44,456.12 525.23,386.85 L 526.5,389.84 C 535.17,449.6 544.39,509.28 553.11,569.03 C 553.35,571.94 554.28,574.77 556.14,577.06 C 566.4,576.19 576.72,576.72 587.01,576.47 C 633.04,576.16 679.06,576.07 725.09,575.8 C 729.24,576.22 730.43,571.42 731.56,568.4 C 741.99,535.47 746.96,500.53 743.41,466.05 C 739.5,424.83 724.81,384.73 701.32,350.66 C 682.23,322.89 657.45,299.04 628.88,281.16 C 592.25,258.02 549.3,245.01 505.99,243.81 C 507.11,282.52 506.63,321.26 506.91,359.99 C 507.43,464.61 507.74,569.24 508.23,673.87 C 502.55,673.24 496.83,673.31 491.17,673.95 C 490.5,582.31 489.8,490.67 489.14,399.04 C 488.94,347.29 487.93,295.55 488.4,243.81 C 450.38,245.3 412.77,255.87 379.53,274.39 M 154.58,773.88 C 147.03,774.64 139.48,775.94 132.3,778.46 C 121.99,781.91 112.5,788.71 107.56,798.6 C 98.44,816.2 98.65,836.64 98.71,855.95 C 99.01,873.64 97.63,891.54 101.1,909.01 C 103.58,922.1 109.4,935.75 121.26,942.9 C 136.98,952.46 156.07,953.44 173.99,953.46 C 195.11,953.25 217.06,955.04 237.17,947.2 C 247.48,943.53 256.3,935.61 260.5,925.44 C 268.75,906.8 267.79,885.95 267.85,866.04 C 267.69,849.3 268.71,832.33 265.09,815.86 C 262.52,803.52 256.73,790.84 245.7,783.94 C 231.5,775.16 214.34,773.52 198.02,773.14 C 183.54,773.09 169.03,772.65 154.58,773.88 M 317.29,773.32 C 317.39,832.69 317.08,892.07 317.44,951.43 C 330.13,951.2 342.82,951.39 355.52,951.34 C 355.52,920.54 355.52,889.75 355.52,858.96 C 355.63,853.26 356.21,847.5 357.99,842.07 C 361.67,830.25 370.59,820.27 381.8,815.08 C 391.53,810.58 402.62,810.2 413.1,811.48 C 424.5,812.85 435.42,819.92 440.29,830.48 C 445.27,840.57 443.92,852.09 443.87,862.96 C 443.9,892.41 443.81,921.87 443.82,951.33 C 456.57,951.33 469.33,951.33 482.08,951.32 C 482.09,918.54 482.08,885.75 482.09,852.96 C 482.09,839.59 482.82,825.82 478.17,813.04 C 472.94,797.53 461,784.31 445.89,777.94 C 434.87,773.45 422.76,773.58 411.07,773.13 C 401,772.79 390.43,773.14 381.28,777.84 C 370.33,783.7 360.91,792.21 353.31,801.98 C 353.21,792.41 353.41,782.84 353.2,773.28 C 341.23,773.38 329.26,773.3 317.29,773.32 M 554.1,780.92 C 543.85,785.45 536,794.61 532.38,805.15 C 525.19,824.24 526.68,844.97 526.48,864.98 C 526.58,880.49 525.86,896.22 529.39,911.45 C 532.01,923.76 537.97,936.18 549.05,942.96 C 563.72,951.65 581.26,953.34 597.97,953.47 C 611.33,953.34 624.71,953.83 638.05,952.94 C 651.25,951.7 665.02,949.19 675.98,941.23 C 685.26,934.45 690.09,923.34 692.61,912.45 C 697.02,892.61 695.25,872.17 695.68,852.03 C 669.99,851.85 644.29,852 618.6,851.96 C 618.59,864.75 618.6,877.54 618.6,890.33 C 631.37,890.34 644.13,890.32 656.9,890.34 C 656.52,896.2 656.31,902.66 652.4,907.43 C 647.9,913.31 640.12,915.38 633.02,915.39 C 619.01,915.41 605,915.39 590.99,915.4 C 585,915.38 578.66,914.7 573.61,911.21 C 568.25,907.71 565.34,901.28 565.15,895.01 C 564.48,878.02 564.96,861.02 564.85,844.04 C 565.42,836.24 564.2,827.61 568.69,820.73 C 572.81,814.33 580.75,811.76 588.04,811.68 C 601.71,811.49 615.39,811.67 629.06,811.6 C 636.98,811.35 645.99,812.18 651.7,818.36 C 656.61,823.37 656.85,830.8 657.05,837.38 C 669.88,837.41 682.72,837.38 695.56,837.4 C 694.56,821.37 692.35,804.16 681.86,791.27 C 675.61,783.63 666.18,779.53 656.9,776.87 C 639,772.11 620.3,773.25 601.97,773.08 C 585.79,773.19 569.02,773.99 554.1,780.92 M 765.95,782.82 C 756.19,788.11 749.74,797.99 746.56,808.41 C 740.84,826.35 741.92,845.41 741.81,863.98 C 742,877.16 741.3,890.42 743.25,903.51 C 744.73,913.92 747.65,924.46 753.79,933.15 C 760.5,942.38 771.24,947.62 782.12,950.17 C 796.44,953.85 811.33,953.53 826,953.54 C 839.29,953.5 852.73,953.88 865.84,951.3 C 875.61,949.47 885.42,946.2 893.19,939.8 C 899.76,934.21 903.91,926.31 906.37,918.15 C 909.54,908.16 910.41,897.65 910.9,887.24 C 898.04,887.26 885.18,887.24 872.33,887.25 C 871.84,893.97 872.3,901.42 868,907.09 C 863.5,913.33 855.38,915.43 848.05,915.46 C 833.39,915.45 818.74,915.5 804.08,915.43 C 796.73,915.35 788.69,913.01 784.27,906.73 C 780.46,901.67 780.32,895.04 780.19,888.98 C 780.04,871.99 780.01,855 780.26,838.01 C 780.59,832.02 780.6,825.47 784.27,820.39 C 788.41,814.4 795.98,811.85 803.01,811.77 C 817.34,811.56 831.67,811.74 846,811.66 C 853.53,811.53 862.05,812.73 867.31,818.71 C 872.48,824.53 872.17,832.81 872.43,840.1 C 885.26,840.1 898.09,840.1 910.93,840.1 C 910.29,824.84 908.52,808.89 900.34,795.62 C 894.37,785.92 883.8,780.08 873.06,777.17 C 854.16,771.99 834.35,773.29 814.97,773.17 C 798.3,773.34 780.82,774.54 765.95,782.82 z"
       id="path5"
       style="opacity:1;fill:#a41d23" />
    <path
       d="M 668.39,54.51 C 674.37,52.64 681.2,53.25 686.58,56.55 C 689.59,58.42 692.2,61.38 692.6,65.02 C 692.98,69.55 689.82,73.73 685.89,75.65 C 679.95,76.3 673.95,75.7 667.98,76 C 661.23,76.53 655.91,68.49 658.5,62.38 C 660.29,58.35 664.26,55.73 668.39,54.51 z"
       id="path7"
       style="opacity:1;fill:#a41d23" />
    <path
       d="M 871.49,54.69 C 879.59,51.96 890.11,53.67 895.09,61.18 C 898.38,66.37 894.87,73.33 889.68,75.67 C 883.81,76.18 877.89,75.85 872,75.9 C 864.92,76.9 859.17,67.7 862.71,61.63 C 864.51,58.21 867.9,55.93 871.49,54.69 z"
       id="path9"
       style="opacity:1;fill:#a41d23" />
    <path
       d="M 822.31,98.21 C 830.68,98.25 839.07,98.12 847.45,98.28 C 847.38,108.08 847.43,117.89 847.42,127.7 C 841.59,127.77 835.77,127.69 829.95,127.75 C 831.33,117.36 828.62,106.59 822.31,98.21 z"
       id="path11"
       style="opacity:1;fill:#a41d23" />
    <path
       d="M 415.4,141.55 C 422.55,139.42 430.48,144.14 432.75,151.09 C 436.08,159.59 430.4,170.61 421.11,171.83 C 412.58,173.13 404.57,165.41 404.67,156.97 C 404.47,150.27 408.79,143.41 415.4,141.55 z"
       id="path13"
       style="opacity:1;fill:#a41d23" />
    <path
       d="M 322.32,342.25 C 362.18,294.11 422.4,263.32 484.9,260.11 C 465.7,355.7 446.46,451.27 427.33,546.87 C 426.55,550.53 427.08,556.84 421.97,557.28 C 374.37,557.43 326.76,557.37 279.16,557.46 C 272.14,533.68 268.1,508.88 268.88,484.04 C 269.84,432.53 289.22,381.68 322.32,342.25 z"
       id="path15"
       style="opacity:1;fill:#a41d23" />
    <path
       d="M 509.8,260.07 C 551.93,261.86 593.4,275.92 628.13,299.8 C 656.83,319.41 680.96,345.63 698.23,375.79 C 719.38,412.66 729.98,455.52 728.3,498 C 727.56,517.31 724.11,536.45 718.87,555.03 C 671.57,555.68 624.27,555.9 576.98,556.47 C 574.71,556.78 572.46,555.34 571.88,553.12 C 568.11,533.34 563.61,513.67 559.51,493.94 C 542.95,415.98 526.3,338.04 509.8,260.07 z"
       id="path17"
       style="opacity:1;fill:#a41d23" />
    <path
       d="M 152.5,812.73 C 155.91,811.76 159.49,811.86 163,811.74 C 176.32,811.5 189.64,811.76 202.96,811.67 C 209,811.63 215.38,812.17 220.58,815.56 C 225.35,818.67 228.36,824.17 228.78,829.83 C 229.53,840.53 229.33,851.26 229.35,861.99 C 229.32,873.69 229.6,885.41 228.58,897.08 C 228.06,902.7 225.23,908.25 220.43,911.39 C 215.34,914.84 209,915.48 203.01,915.47 C 189.34,915.44 175.68,915.49 162.02,915.44 C 155.25,915.4 147.94,913.96 143.02,908.95 C 139.4,905.28 137.55,900.14 137.34,895.05 C 136.77,881.03 137.12,867 137.04,852.98 C 137.11,844 136.7,834.92 138.49,826.07 C 140.12,819.4 146.09,814.54 152.5,812.73 z"
       id="path19"
       style="opacity:1;fill:#a41d23" />
  </g>
  <g
     id="#ffffffff">
    <path
       d="M 648.86,35.78 C 665.44,28.93 684.7,29.02 701.32,35.69 C 710.64,39.57 719.56,46.33 722.94,56.19 C 725.24,62.82 723.43,70.13 719.9,75.97 C 722.69,75.96 725.48,75.95 728.28,75.9 C 728.27,83.36 728.35,90.82 728.22,98.28 C 723.26,98.19 718.3,98.19 713.35,98.23 C 713.34,132.91 713.35,167.59 713.34,202.27 C 703.99,202.27 694.64,202.26 685.29,202.27 C 685.2,167.62 685.15,132.97 685.28,98.32 C 679.01,98.08 672.73,98.25 666.46,98.23 C 666.46,132.91 666.47,167.59 666.46,202.27 C 657.05,202.27 647.64,202.26 638.23,202.27 C 638.2,180.77 638.23,159.28 638.21,137.78 C 631.58,137.59 624.95,137.7 618.33,137.69 C 623.18,145.87 625.75,155.58 624.53,165.09 C 623.22,177.37 616.16,188.8 605.99,195.75 C 596.51,202.42 584.35,204.94 572.95,203.03 C 558.2,200.7 544.99,190.32 539.37,176.47 C 536.1,168.82 535.51,160.23 536.93,152.09 C 546.84,152.06 556.74,152.13 566.65,152.05 C 565.37,159.47 566.39,167.7 571.26,173.71 C 574.41,177.74 580.12,180.14 585.07,178.08 C 591.52,175.57 595.01,168.65 595.87,162.1 C 597.01,154.03 594.67,144.77 587.77,139.83 C 581.94,136.1 574.8,138.26 568.35,137.75 C 568.36,130.32 568.35,122.89 568.35,115.46 C 591.66,115.46 614.97,115.48 638.28,115.45 C 638.28,109.7 638.32,103.95 638.25,98.2 C 603.05,98.21 567.86,98.21 532.66,98.21 C 532.65,90.79 532.65,83.37 532.66,75.96 C 565.29,75.95 597.92,75.94 630.55,75.96 C 626.72,69.84 625.04,61.94 627.89,55.09 C 631.47,45.84 640,39.55 648.86,35.78 M 668.39,54.51 C 664.26,55.73 660.29,58.35 658.5,62.38 C 655.91,68.49 661.23,76.53 667.98,76 C 673.95,75.7 679.95,76.3 685.89,75.65 C 689.82,73.73 692.98,69.55 692.6,65.02 C 692.2,61.38 689.59,58.42 686.58,56.55 C 681.2,53.25 674.37,52.64 668.39,54.51 z"
       id="path22"
       style="opacity:1;fill:#ffffff" />
    <path
       d="M 853.63,35.37 C 869.79,29.09 888.31,29.1 904.45,35.41 C 913.6,39.13 922.43,45.45 926.23,54.89 C 929.14,61.78 927.52,69.78 923.65,75.96 C 926.65,75.93 929.65,75.93 932.66,76 C 932.7,83.31 932.78,90.63 932.66,97.94 C 928.86,98.53 924.86,98.03 921,98.22 C 921,132.9 921,167.58 921,202.27 C 911.58,202.27 902.18,202.27 892.77,202.27 C 892.75,167.58 892.78,132.9 892.76,98.22 C 887.04,98.19 881.32,98.22 875.61,98.2 C 875.48,132.91 875.72,167.62 875.49,202.32 C 866.16,202.23 856.82,202.25 847.49,202.31 C 847.32,184.88 847.47,167.44 847.41,150 C 837.65,149.98 827.89,150 818.13,150.07 C 807.01,161.51 787.79,166.57 773.71,157.62 C 773.83,163.83 773.3,170.17 774.74,176.27 C 775.72,179.87 780.07,180.05 783.13,180.31 C 798.13,180.56 813.13,180.53 828.14,180.47 C 828.16,187.9 828.07,195.33 828.19,202.76 C 809.46,202.91 790.73,202.82 772,202.81 C 765.74,202.88 759.25,200.82 754.95,196.08 C 747.97,188.58 745.76,177.88 745.58,167.93 C 745.49,149.88 745.56,131.84 745.54,113.79 C 754.93,113.79 764.32,113.79 773.71,113.79 C 773.67,120.13 773.79,126.47 773.79,132.81 C 777.61,135.6 782.12,138.36 787.07,137.65 C 793.07,136.97 797.63,131.78 799.24,126.2 C 802.05,116.15 797.81,103.91 788.25,99.07 C 786.34,97.89 784.04,98.34 781.94,98.26 C 769.45,98.2 756.97,98.2 744.49,98.21 C 744.47,90.79 744.47,83.37 744.49,75.95 C 774.43,75.94 804.37,75.87 834.31,75.9 C 830.42,69.73 828.82,61.73 831.77,54.85 C 835.57,45.38 844.46,39.07 853.63,35.37 M 871.49,54.69 C 867.9,55.93 864.51,58.21 862.71,61.63 C 859.17,67.7 864.92,76.9 872,75.9 C 877.89,75.85 883.81,76.18 889.68,75.67 C 894.87,73.33 898.38,66.37 895.09,61.18 C 890.11,53.67 879.59,51.96 871.49,54.69 M 822.31,98.21 C 828.62,106.59 831.33,117.36 829.95,127.75 C 835.77,127.69 841.59,127.77 847.42,127.7 C 847.43,117.89 847.38,108.08 847.45,98.28 C 839.07,98.12 830.68,98.25 822.31,98.21 z"
       id="path24"
       style="opacity:1;fill:#ffffff" />
    <path
       d="M 173.08,32.91 C 182.38,32.91 191.68,32.88 200.98,32.91 C 208.64,33.01 216.74,35.15 222.27,40.75 C 226.32,44.62 228.18,50.06 230.05,55.2 C 233,62.14 236.11,69.01 239.2,75.89 C 243.23,75.91 247.25,75.9 251.28,75.9 C 251.29,83.34 251.29,90.77 251.29,98.21 C 247.76,98.2 244.23,98.19 240.71,98.24 C 240.71,132.92 240.72,167.6 240.71,202.27 C 231.32,202.27 221.93,202.27 212.54,202.27 C 212.53,167.59 212.54,132.91 212.54,98.23 C 206.81,98.19 201.08,98.2 195.36,98.22 C 195.33,132.9 195.36,167.59 195.34,202.27 C 185.95,202.27 176.55,202.26 167.16,202.27 C 167.13,193.36 167.16,184.45 167.15,175.55 C 162.74,175.57 158.32,175.43 153.92,175.63 C 150.03,186.7 141.49,195.98 130.88,200.96 C 116.9,207.73 99.55,206.78 86.31,198.7 C 72.51,190.61 63.88,174.4 65.45,158.4 C 75.01,158.36 84.56,158.47 94.11,158.34 C 93.48,161.55 92.6,164.84 93.33,168.11 C 94.79,176.23 102.91,182.41 111.12,181.78 C 117.88,181.44 124.14,176.66 126.3,170.25 C 128.58,163.46 126.08,154.91 119.61,151.37 C 114.65,149.76 109.34,150.71 104.22,150.55 C 104.06,143.12 104.19,135.68 104.15,128.24 C 109.53,127.94 115.98,129.49 120.26,125.33 C 127,119.46 126.86,107.73 119.77,102.19 C 113.06,96.27 101.68,97.56 96.68,105.05 C 94.18,108.45 93.45,112.81 93.87,116.95 C 84.9,116.88 75.93,116.94 66.96,116.91 C 66.3,107.68 68.82,98.21 74.44,90.81 C 82.21,80.34 95.03,73.92 108.03,73.68 C 121.22,73.14 134.76,78.63 143.29,88.82 C 149.65,96.26 153.04,106.22 152.29,116 C 151.96,122.8 149.07,129.16 145.58,134.89 C 151.25,141.39 154.79,149.56 155.97,158.08 C 159.69,158.09 163.42,158.09 167.14,158.08 C 167.14,138.12 167.18,118.16 167.12,98.21 C 163.73,98.21 160.35,98.21 156.97,98.2 C 156.96,90.79 156.96,83.37 156.97,75.96 C 174.34,75.93 191.71,75.98 209.08,75.93 C 206.94,69.47 205.39,61.77 199.08,58 C 191.22,53.45 181.77,54.83 173.09,54.69 C 173.06,47.43 173.08,40.17 173.08,32.91 z"
       id="path26"
       style="opacity:1;fill:#ffffff" />
    <path
       d="M 262.72,75.9 C 347.67,75.99 432.62,75.94 517.58,75.95 C 517.59,83.37 517.59,90.79 517.58,98.21 C 513.48,98.21 509.39,98.2 505.3,98.22 C 505.27,132.88 505.3,167.54 505.29,202.21 C 495.88,202.24 486.48,202.15 477.07,202.26 C 477.02,181.63 477.18,161 476.99,140.37 C 470.23,140.4 463.47,140.45 456.71,140.31 C 459.77,147.95 461.34,156.45 459.3,164.56 C 456.83,175.58 449.13,185.12 439.18,190.35 C 428.52,196.05 415.4,196.87 404.1,192.58 C 392.34,188.29 382.62,178.29 379.41,166.1 C 375.7,152.13 379.93,135.59 391.74,126.68 C 399.67,120.37 410.02,118.24 419.95,118.18 C 438.99,117.78 458.03,118.11 477.07,118 C 477.07,111.4 477.08,104.8 477.07,98.21 C 438.85,98.21 400.63,98.2 362.41,98.22 C 368.34,106.54 372.61,116.61 371.78,127.01 C 371.12,138.16 364.46,148.24 355.65,154.78 C 343.9,163.64 327.63,166.19 313.8,161.1 C 316.31,152.5 319.08,143.97 321.29,135.29 C 327.19,140.17 336.72,138.06 340.5,131.6 C 345.16,123.37 343.57,112.89 338.8,105.08 C 336.75,101.59 333.35,98.28 329.05,98.29 C 320.05,98.12 311.05,98.25 302.05,98.2 C 302.14,119.49 302.05,140.78 302.1,162.07 C 302.32,166.78 302.11,172.03 305.09,176 C 308.25,179.7 313.6,179.69 318.06,179.89 C 335.88,179.92 353.7,179.89 371.51,179.9 C 371.53,187.36 371.52,194.81 371.52,202.27 C 348.37,202.26 325.22,202.29 302.07,202.25 C 295.01,202.3 287.6,200.08 282.69,194.79 C 276.14,187.96 273.8,178.15 273.82,168.93 C 273.8,145.36 273.83,121.79 273.8,98.22 C 270.11,98.2 266.41,98.21 262.71,98.21 C 262.71,90.77 262.7,83.34 262.72,75.9 M 415.4,141.55 C 408.79,143.41 404.47,150.27 404.67,156.97 C 404.57,165.41 412.58,173.13 421.11,171.83 C 430.4,170.61 436.08,159.59 432.75,151.09 C 430.48,144.14 422.55,139.42 415.4,141.55 z"
       id="path28"
       style="opacity:1;fill:#ffffff" />
    <path
       d="M 379.53,274.39 C 412.77,255.87 450.38,245.3 488.4,243.81 C 487.93,295.55 488.94,347.29 489.14,399.04 C 489.8,490.67 490.5,582.31 491.17,673.95 C 496.83,673.31 502.55,673.24 508.23,673.87 C 507.74,569.24 507.43,464.61 506.91,359.99 C 506.63,321.26 507.11,282.52 505.99,243.81 C 549.3,245.01 592.25,258.02 628.88,281.16 C 657.45,299.04 682.23,322.89 701.32,350.66 C 724.81,384.73 739.5,424.83 743.41,466.05 C 746.96,500.53 741.99,535.47 731.56,568.4 C 730.43,571.42 729.24,576.22 725.09,575.8 C 679.06,576.07 633.04,576.16 587.01,576.47 C 576.72,576.72 566.4,576.19 556.14,577.06 C 554.28,574.77 553.35,571.94 553.11,569.03 C 544.39,509.28 535.17,449.6 526.5,389.84 L 525.23,386.85 C 525.44,456.12 525.92,525.39 526.15,594.66 C 590.55,594.23 654.95,594.05 719.36,593.96 C 715.6,599.38 711.86,604.81 708.07,610.21 C 666.7,610.22 625.33,610.17 583.96,610.24 C 596.71,618.96 608.84,628.71 619.23,640.19 C 632.04,654.09 642.56,670.06 650.33,687.28 C 644.61,689.77 638.81,692.09 633.05,694.48 C 616.94,658.72 587.02,629.59 551.11,613.94 C 543.52,609.52 534.6,610.78 526.24,610.82 C 526.12,619.22 526.37,627.63 526.27,636.03 C 563.3,645.32 594.71,674.71 605.63,711.4 C 599.67,713.08 593.69,714.7 587.74,716.38 C 578.71,687.75 555.07,664.25 526.36,655.47 C 526.46,663.73 526.32,672 526.58,680.27 C 544.24,689.88 555.37,709.95 554.67,730 C 518.25,730.03 481.83,730.23 445.41,730.27 C 444.64,710.42 455.41,690.37 472.84,680.67 C 473.06,672.4 472.75,664.12 472.8,655.85 C 444.09,664.58 420.86,688.68 412.16,717.29 C 406.17,715.63 400.14,714.14 394.18,712.43 C 404.73,675.73 435.67,645.85 472.62,636.34 C 472.72,627.93 472.46,619.51 472.57,611.1 C 466.32,611.33 459.87,610.19 453.79,611.97 C 415.14,626.97 383.18,658.02 366.57,695.95 C 360.81,693.59 355.04,691.27 349.26,688.95 C 361.74,659.85 382.52,634.5 408.09,615.89 L 408.4,616.73 L 408.34,615.8 C 410.41,614.03 412.78,612.65 414.99,611.06 C 373.43,611 331.87,611.15 290.32,610.91 C 286.74,605.46 282.87,600.22 279.18,594.84 C 343.57,594.85 407.95,594.85 472.34,594.85 C 471.84,525.15 471.5,455.45 470.66,385.76 C 464.45,426.73 459.11,467.85 453.35,508.89 C 450.51,529.86 447.48,550.8 444.77,571.79 C 444.28,573.87 443.57,576.29 441.69,577.52 C 415.14,577.04 388.58,577.71 362.02,577.67 C 334.33,577.91 306.63,577.99 278.93,578.2 C 275.16,578.16 269.73,579.59 268.24,574.87 C 262.95,561.39 259.63,547.16 256.83,532.96 C 247.82,485.93 253.86,436.43 272.7,392.5 C 294.11,342.87 332.26,300.63 379.53,274.39 M 322.32,342.25 C 289.22,381.68 269.84,432.53 268.88,484.04 C 268.1,508.88 272.14,533.68 279.16,557.46 C 326.76,557.37 374.37,557.43 421.97,557.28 C 427.08,556.84 426.55,550.53 427.33,546.87 C 446.46,451.27 465.7,355.7 484.9,260.11 C 422.4,263.32 362.18,294.11 322.32,342.25 M 509.8,260.07 C 526.3,338.04 542.95,415.98 559.51,493.94 C 563.61,513.67 568.11,533.34 571.88,553.12 C 572.46,555.34 574.71,556.78 576.98,556.47 C 624.27,555.9 671.57,555.68 718.87,555.03 C 724.11,536.45 727.56,517.31 728.3,498 C 729.98,455.52 719.38,412.66 698.23,375.79 C 680.96,345.63 656.83,319.41 628.13,299.8 C 593.4,275.92 551.93,261.86 509.8,260.07 z"
       id="path30"
       style="opacity:1;fill:#ffffff" />
    <path
       d="M 154.58,773.88 C 169.03,772.65 183.54,773.09 198.02,773.14 C 214.34,773.52 231.5,775.16 245.7,783.94 C 256.73,790.84 262.52,803.52 265.09,815.86 C 268.71,832.33 267.69,849.3 267.85,866.04 C 267.79,885.95 268.75,906.8 260.5,925.44 C 256.3,935.61 247.48,943.53 237.17,947.2 C 217.06,955.04 195.11,953.25 173.99,953.46 C 156.07,953.44 136.98,952.46 121.26,942.9 C 109.4,935.75 103.58,922.1 101.1,909.01 C 97.63,891.54 99.01,873.64 98.71,855.95 C 98.65,836.64 98.44,816.2 107.56,798.6 C 112.5,788.71 121.99,781.91 132.3,778.46 C 139.48,775.94 147.03,774.64 154.58,773.88 M 152.5,812.73 C 146.09,814.54 140.12,819.4 138.49,826.07 C 136.7,834.92 137.11,844 137.04,852.98 C 137.12,867 136.77,881.03 137.34,895.05 C 137.55,900.14 139.4,905.28 143.02,908.95 C 147.94,913.96 155.25,915.4 162.02,915.44 C 175.68,915.49 189.34,915.44 203.01,915.47 C 209,915.48 215.34,914.84 220.43,911.39 C 225.23,908.25 228.06,902.7 228.58,897.08 C 229.6,885.41 229.32,873.69 229.35,861.99 C 229.33,851.26 229.53,840.53 228.78,829.83 C 228.36,824.17 225.35,818.67 220.58,815.56 C 215.38,812.17 209,811.63 202.96,811.67 C 189.64,811.76 176.32,811.5 163,811.74 C 159.49,811.86 155.91,811.76 152.5,812.73 z"
       id="path32"
       style="opacity:1;fill:#ffffff" />
    <path
       d="M 317.29,773.32 C 329.26,773.3 341.23,773.38 353.2,773.28 C 353.41,782.84 353.21,792.41 353.31,801.98 C 360.91,792.21 370.33,783.7 381.28,777.84 C 390.43,773.14 401,772.79 411.07,773.13 C 422.76,773.58 434.87,773.45 445.89,777.94 C 461,784.31 472.94,797.53 478.17,813.04 C 482.82,825.82 482.09,839.59 482.09,852.96 C 482.08,885.75 482.09,918.54 482.08,951.32 C 469.33,951.33 456.57,951.33 443.82,951.33 C 443.81,921.87 443.9,892.41 443.87,862.96 C 443.92,852.09 445.27,840.57 440.29,830.48 C 435.42,819.92 424.5,812.85 413.1,811.48 C 402.62,810.2 391.53,810.58 381.8,815.08 C 370.59,820.27 361.67,830.25 357.99,842.07 C 356.21,847.5 355.63,853.26 355.52,858.96 C 355.52,889.75 355.52,920.54 355.52,951.34 C 342.82,951.39 330.13,951.2 317.44,951.43 C 317.08,892.07 317.39,832.69 317.29,773.32 z"
       id="path34"
       style="opacity:1;fill:#ffffff" />
    <path
       d="M 554.1,780.92 C 569.02,773.99 585.79,773.19 601.97,773.08 C 620.3,773.25 639,772.11 656.9,776.87 C 666.18,779.53 675.61,783.63 681.86,791.27 C 692.35,804.16 694.56,821.37 695.56,837.4 C 682.72,837.38 669.88,837.41 657.05,837.38 C 656.85,830.8 656.61,823.37 651.7,818.36 C 645.99,812.18 636.98,811.35 629.06,811.6 C 615.39,811.67 601.71,811.49 588.04,811.68 C 580.75,811.76 572.81,814.33 568.69,820.73 C 564.2,827.61 565.42,836.24 564.85,844.04 C 564.96,861.02 564.48,878.02 565.15,895.01 C 565.34,901.28 568.25,907.71 573.61,911.21 C 578.66,914.7 585,915.38 590.99,915.4 C 605,915.39 619.01,915.41 633.02,915.39 C 640.12,915.38 647.9,913.31 652.4,907.43 C 656.31,902.66 656.52,896.2 656.9,890.34 C 644.13,890.32 631.37,890.34 618.6,890.33 C 618.6,877.54 618.59,864.75 618.6,851.96 C 644.29,852 669.99,851.85 695.68,852.03 C 695.25,872.17 697.02,892.61 692.61,912.45 C 690.09,923.34 685.26,934.45 675.98,941.23 C 665.02,949.19 651.25,951.7 638.05,952.94 C 624.71,953.83 611.33,953.34 597.97,953.47 C 581.26,953.34 563.72,951.65 549.05,942.96 C 537.97,936.18 532.01,923.76 529.39,911.45 C 525.86,896.22 526.58,880.49 526.48,864.98 C 526.68,844.97 525.19,824.24 532.38,805.15 C 536,794.61 543.85,785.45 554.1,780.92 z"
       id="path36"
       style="opacity:1;fill:#ffffff" />
    <path
       d="M 765.95,782.82 C 780.82,774.54 798.3,773.34 814.97,773.17 C 834.35,773.29 854.16,771.99 873.06,777.17 C 883.8,780.08 894.37,785.92 900.34,795.62 C 908.52,808.89 910.29,824.84 910.93,840.1 C 898.09,840.1 885.26,840.1 872.43,840.1 C 872.17,832.81 872.48,824.53 867.31,818.71 C 862.05,812.73 853.53,811.53 846,811.66 C 831.67,811.74 817.34,811.56 803.01,811.77 C 795.98,811.85 788.41,814.4 784.27,820.39 C 780.6,825.47 780.59,832.02 780.26,838.01 C 780.01,855 780.04,871.99 780.19,888.98 C 780.32,895.04 780.46,901.67 784.27,906.73 C 788.69,913.01 796.73,915.35 804.08,915.43 C 818.74,915.5 833.39,915.45 848.05,915.46 C 855.38,915.43 863.5,913.33 868,907.09 C 872.3,901.42 871.84,893.97 872.33,887.25 C 885.18,887.24 898.04,887.26 910.9,887.24 C 910.41,897.65 909.54,908.16 906.37,918.15 C 903.91,926.31 899.76,934.21 893.19,939.8 C 885.42,946.2 875.61,949.47 865.84,951.3 C 852.73,953.88 839.29,953.5 826,953.54 C 811.33,953.53 796.44,953.85 782.12,950.17 C 771.24,947.62 760.5,942.38 753.79,933.15 C 747.65,924.46 744.73,913.92 743.25,903.51 C 741.3,890.42 742,877.16 741.81,863.98 C 741.92,845.41 740.84,826.35 746.56,808.41 C 749.74,797.99 756.19,788.11 765.95,782.82 z"
       id="path38"
       style="opacity:1;fill:#ffffff" />
  </g>
</svg>
